<?xml version="1.0" standalone="no"?>
<!DOCTYPE svg PUBLIC "-//W3C//DTD SVG 20010904//EN"
 "http://www.w3.org/TR/2001/REC-SVG-20010904/DTD/svg10.dtd">
<svg version="1.0" xmlns="http://www.w3.org/2000/svg"
 width="512.000000pt" height="512.000000pt" viewBox="0 0 512.000000 512.000000"
 preserveAspectRatio="xMidYMid meet">

<g transform="translate(0.000000,512.000000) scale(0.100000,-0.100000)"
fill="#000000" stroke="none">
<path d="M2375 4793 c-921 -80 -1710 -724 -1963 -1603 -68 -235 -87 -373 -86
-635 0 -249 16 -372 78 -598 206 -746 807 -1347 1553 -1553 224 -61 349 -77
598 -78 242 -1 343 11 559 65 621 155 1161 592 1453 1174 90 178 171 439 209
670 27 164 25 505 -4 675 -85 500 -304 918 -659 1261 -369 356 -836 571 -1343
618 -107 10 -303 12 -395 4z m252 -328 c189 -79 382 -463 482 -960 l28 -140
-288 -3 c-159 -1 -419 -1 -578 0 l-288 3 28 140 c78 389 215 715 365 871 92
96 169 123 251 89z m-678 -157 c-130 -257 -230 -578 -284 -910 l-6 -38 -421 0
c-396 0 -420 1 -414 18 4 9 31 60 61 113 223 394 564 692 985 860 52 21 101
38 108 38 7 1 -4 -32 -29 -81z m1294 46 c339 -134 628 -352 841 -634 76 -101
174 -259 201 -325 l15 -35 -419 0 -420 0 -6 38 c-54 332 -154 653 -284 910
-23 45 -37 82 -31 82 6 0 52 -16 103 -36z m-1630 -1441 c-5 -71 -8 -229 -8
-353 0 -124 3 -282 8 -352 l7 -128 -459 0 -459 0 -15 68 c-33 143 -41 233 -41
412 0 179 8 269 41 413 l15 67 459 0 459 0 -7 -127z m1574 30 c10 -127 10
-639 0 -765 l-9 -98 -618 0 -618 0 -9 98 c-4 53 -8 225 -8 382 0 157 4 329 8
383 l9 97 618 0 618 0 9 -97z m1246 30 c35 -157 41 -224 41 -413 0 -189 -6
-256 -41 -412 l-15 -68 -459 0 -458 0 7 98 c4 53 7 225 7 382 0 157 -3 329 -7
383 l-7 97 458 0 459 0 15 -67z m-2768 -1250 c54 -333 154 -654 284 -910 23
-46 38 -83 33 -83 -19 0 -222 84 -303 126 -242 125 -478 325 -644 546 -75 99
-173 257 -200 323 l-15 35 419 0 420 0 6 -37z m1470 20 c-2 -10 -16 -76 -30
-146 -99 -492 -303 -885 -491 -947 -226 -75 -497 378 -617 1033 l-15 77 578 0
c545 0 578 -1 575 -17z m1150 -18 c-8 -20 -39 -78 -70 -130 -183 -312 -453
-570 -769 -736 -87 -46 -284 -129 -306 -129 -6 0 8 37 31 83 130 256 230 577
284 910 l6 37 420 0 419 0 -15 -35z"/>
</g>
</svg>
