<svg xmlns="http://www.w3.org/2000/svg" xmlns:xlink="http://www.w3.org/1999/xlink" viewBox="0,0,256,256" width="64px" height="64px" fill-rule="nonzero"><defs><linearGradient x1="32" y1="6" x2="32" y2="58" gradientUnits="userSpaceOnUse" id="color-1"><stop offset="0" stop-color="#ffffff"></stop><stop offset="1" stop-color="#ffffff"></stop></linearGradient><linearGradient x1="36.844" y1="30" x2="36.844" y2="36" gradientUnits="userSpaceOnUse" id="color-2"><stop offset="0" stop-color="#ffffff"></stop><stop offset="1" stop-color="#ffffff"></stop></linearGradient><linearGradient x1="27.156" y1="30" x2="27.156" y2="36" gradientUnits="userSpaceOnUse" id="color-3"><stop offset="0" stop-color="#ffffff"></stop><stop offset="1" stop-color="#ffffff"></stop></linearGradient><linearGradient x1="32" y1="10" x2="32" y2="54" gradientUnits="userSpaceOnUse" id="color-4"><stop offset="0" stop-color="#ffffff"></stop><stop offset="1" stop-color="#ffffff"></stop></linearGradient></defs><g transform="translate(-19.2,-19.2) scale(1.15,1.15)"><g fill-opacity="0" fill="#ffffff" fill-rule="nonzero" stroke="none" stroke-width="1" stroke-linecap="butt" stroke-linejoin="miter" stroke-miterlimit="10" stroke-dasharray="" stroke-dashoffset="0" font-family="none" font-weight="none" font-size="none" text-anchor="none" style="mix-blend-mode: normal"><path d="M16.69565,239.30435v-222.6087h222.6087v222.6087z" id="bgRectangle"></path></g><g fill="none" fill-rule="nonzero" stroke="none" stroke-width="1" stroke-linecap="butt" stroke-linejoin="miter" stroke-miterlimit="10" stroke-dasharray="" stroke-dashoffset="0" font-family="none" font-weight="none" font-size="none" text-anchor="none" style="mix-blend-mode: normal"><g transform="scale(4,4)"><path d="M32,58c-14.337,0 -26,-11.663 -26,-26c0,-14.337 11.663,-26 26,-26c14.337,0 26,11.663 26,26c0,14.337 -11.663,26 -26,26zM32,8c-13.233,0 -24,10.767 -24,24c0,13.233 10.767,24 24,24c13.233,0 24,-10.767 24,-24c0,-13.233 -10.767,-24 -24,-24z" fill="url(#color-1)"></path><ellipse cx="36.844" cy="33" rx="2.656" ry="3" fill="url(#color-2)"></ellipse><ellipse cx="27.156" cy="33" rx="2.656" ry="3" fill="url(#color-3)"></ellipse><path d="M32,10c-12.15,0 -22,9.85 -22,22c0,12.15 9.85,22 22,22c12.15,0 22,-9.85 22,-22c0,-12.15 -9.85,-22 -22,-22zM46.677,39.804c-2.62,2.317 -7.677,3.696 -7.677,3.696l-1.5,-2.5c0,0 1,-0.5 2.5,-1.5l-0.5,-0.5c0,0 -3.5,2 -7.5,2c-4,0 -7.5,-2 -7.5,-2l-0.5,0.5c1.5,1 2.5,1.5 2.5,1.5l-1.5,2.5c0,0 -5.057,-1.379 -7.677,-3.696c-0.216,-0.191 -0.324,-0.471 -0.32,-0.759c0.05,-3.32 0.663,-11.521 4.324,-16.323c0.112,-0.147 0.265,-0.261 0.435,-0.332c3.387,-1.415 6.238,-1.89 6.238,-1.89l1,2c0,0 1.5,-0.5 3,-0.5c1.5,0 3,0.5 3,0.5l1,-2c0,0 2.851,0.475 6.237,1.889c0.17,0.071 0.323,0.185 0.435,0.332c3.661,4.802 4.274,13.003 4.324,16.323c0.005,0.289 -0.103,0.568 -0.319,0.76z" fill="url(#color-4)"></path></g></g></g></svg>