<?xml version="1.0" standalone="no"?>
<!DOCTYPE svg PUBLIC "-//W3C//DTD SVG 20010904//EN"
 "http://www.w3.org/TR/2001/REC-SVG-20010904/DTD/svg10.dtd">
<svg version="1.0" xmlns="http://www.w3.org/2000/svg"
 width="512.000000pt" height="512.000000pt" viewBox="0 0 512.000000 512.000000"
 preserveAspectRatio="xMidYMid meet">

<g transform="translate(0.000000,512.000000) scale(0.100000,-0.100000)"
fill="#fffff" stroke="none">
<path d="M2001 5104 c-150 -40 -265 -148 -324 -302 l-22 -57 -5 -1238 -5
-1238 -140 132 c-177 166 -221 201 -299 239 -126 59 -292 77 -425 44 -150 -37
-307 -147 -358 -251 -22 -47 -27 -70 -27 -128 1 -124 -4 -118 503 -630 1082
-1092 1300 -1309 1368 -1361 555 -420 1312 -416 1857 10 176 138 353 356 446
551 80 168 130 347 149 544 15 142 15 1507 0 1587 -32 174 -167 324 -333 369
-49 13 -88 17 -156 13 -78 -5 -102 -11 -162 -40 -59 -30 -70 -33 -75 -19 -22
68 -73 153 -124 203 -144 141 -345 172 -529 80 -41 -20 -78 -38 -81 -40 -3 -1
-13 14 -22 33 -22 45 -99 128 -155 167 -73 50 -145 71 -252 71 -95 1 -106 -2
-237 -60 -10 -4 -13 91 -13 459 0 384 -3 474 -15 523 -66 252 -320 405 -564
339z m226 -226 c24 -11 59 -38 78 -61 67 -78 65 -50 65 -984 0 -916 -2 -885
55 -911 54 -25 111 -9 138 38 14 24 17 60 17 237 0 235 8 283 61 346 67 81
199 112 294 68 43 -19 109 -85 128 -129 8 -18 13 -134 17 -360 l5 -334 33 -29
c38 -34 93 -39 131 -13 45 32 51 68 51 296 0 203 1 215 24 264 68 147 250 190
381 90 17 -13 44 -48 60 -77 l30 -54 5 -331 c5 -309 6 -333 24 -353 41 -46
122 -43 164 4 21 25 22 34 22 194 0 200 12 252 71 316 55 59 126 89 200 82 94
-8 167 -59 205 -142 l24 -50 0 -775 c0 -822 -2 -855 -49 -1025 -101 -360 -377
-688 -712 -844 -189 -89 -347 -123 -559 -124 -302 0 -572 93 -813 281 -32 25
-442 434 -912 909 -815 823 -855 865 -855 900 0 28 8 43 36 69 114 108 284
141 435 85 75 -29 93 -43 333 -269 293 -276 300 -282 345 -282 40 0 74 19 93
53 10 17 14 318 18 1398 l5 1376 30 49 c32 51 112 109 164 117 44 8 114 -3
158 -25z"/>
</g>
</svg>
