<svg version="1.1" id="Layer_1" xmlns="http://www.w3.org/2000/svg" xmlns:xlink="http://www.w3.org/1999/xlink" x="0px" y="0px"
	 width="100%" viewBox="0 0 512 512" enable-background="new 0 0 512 512" xml:space="preserve">
	<path fill="#000000" opacity="1.000000" stroke="none" 
		d="
	M235.000000,1.000000 
		C249.354233,1.000000 263.708466,1.000000 278.691132,1.403420 
		C291.979370,3.768808 304.768005,5.132386 317.270447,7.824902 
		C339.186798,12.544786 359.719788,21.039032 379.486572,31.701464 
		C397.573425,41.457718 414.210510,53.174999 429.233948,67.008217 
		C438.801025,75.817345 447.403473,85.731682 455.963257,95.564117 
		C470.034271,111.727203 480.876221,130.010300 489.851257,149.424850 
		C500.731628,172.961090 508.230530,197.460022 511.036316,223.319138 
		C511.461517,227.237640 512.334290,231.107590 513.000000,235.000000 
		C513.000000,249.354233 513.000000,263.708466 512.596558,278.691162 
		C510.231293,291.979187 508.869720,304.768127 506.175171,317.269745 
		C501.451324,339.186584 492.907349,359.707458 482.287445,379.486389 
		C472.565918,397.592224 460.823181,414.214661 446.988953,429.236816 
		C438.179169,438.803040 428.265930,447.406067 418.433533,455.965485 
		C402.270569,470.035858 383.987671,480.877502 364.573639,489.852325 
		C341.037903,500.732452 316.539398,508.231232 290.680634,511.036377 
		C286.762207,511.461456 282.892334,512.334290 279.000000,513.000000 
		C264.645782,513.000000 250.291550,513.000000 235.308868,512.596558 
		C225.456787,511.120270 216.100891,510.695618 207.035843,508.845673 
		C185.138275,504.376953 164.017761,497.296844 143.943100,487.410034 
		C122.533768,476.865875 102.808990,463.641571 85.214890,447.550293 
		C70.309799,433.918304 56.883198,418.879883 45.466560,402.074554 
		C34.136093,385.396027 24.746998,367.756317 17.494526,348.976471 
		C11.814860,334.269348 7.316034,319.231018 4.932283,303.582764 
		C3.980364,297.333862 2.331567,291.191071 0.999999,285.000000 
		C1.000000,267.312439 1.000000,249.624878 1.393278,231.322479 
		C2.865641,222.824585 3.466517,214.839966 5.114766,207.077774 
		C9.790231,185.059311 16.845783,163.805801 26.833643,143.574814 
		C37.336105,122.301468 50.480888,102.748260 66.422951,85.254311 
		C80.027626,70.325279 95.043724,56.854565 111.900215,45.512066 
		C128.073837,34.629063 145.039703,25.402962 163.210861,18.255049 
		C182.483871,10.673695 202.272827,5.405900 222.835449,2.972082 
		C226.911011,2.489695 230.946198,1.666196 235.000000,1.000000 
	M367.315979,440.970856 
		C377.628510,433.079102 388.353546,425.661682 398.132996,417.156921 
		C407.188843,409.281403 415.998840,400.866089 423.557770,391.581818 
		C437.739075,374.163727 449.018372,354.882782 457.085297,333.764130 
		C464.631165,314.009583 469.435089,293.615265 470.793488,272.611633 
		C471.591644,260.269806 470.835205,247.754578 469.839233,235.392960 
		C469.062103,225.747971 467.264038,216.125214 465.168365,206.658920 
		C460.767944,186.782013 452.990692,168.161987 442.896088,150.502365 
		C429.669769,127.364052 412.356293,107.559921 391.946686,90.681549 
		C374.381134,76.155190 354.711060,64.812447 333.281219,56.685371 
		C313.675323,49.249996 293.403778,44.508499 272.551025,43.202465 
		C260.205292,42.429230 247.629639,42.785915 235.346710,44.237103 
		C221.940979,45.820946 208.559250,48.532322 195.514252,52.042477 
		C172.161270,58.326305 151.081009,69.422806 131.474518,83.700089 
		C116.185524,94.833405 102.576942,107.674324 90.653809,122.109085 
		C76.136978,139.683899 64.691994,159.312057 56.679546,180.778229 
		C48.766029,201.979370 43.629200,223.814636 43.100159,246.498932 
		C42.849800,257.234009 42.855812,268.096985 44.205158,278.716553 
		C45.889317,291.971100 48.220566,305.273468 51.803780,318.128357 
		C58.328064,341.534393 69.279564,362.874908 83.728073,382.581635 
		C94.909134,397.831818 107.709702,411.478455 122.154510,423.386322 
		C139.486847,437.674561 158.817108,448.984619 179.940475,457.004517 
		C201.419556,465.159454 223.568832,470.273071 246.560791,470.893494 
		C257.292664,471.183075 268.092712,470.774841 278.792664,469.867035 
		C288.139465,469.074005 297.552490,467.802826 306.649048,465.571899 
		C327.791138,460.386902 347.920380,452.457214 367.315979,440.970856 
	z"/>
	<path fill="#FFFFFF" opacity="1.000000" stroke="none" 
		d="
	M279.468658,513.000000 
		C282.892334,512.334290 286.762207,511.461456 290.680634,511.036377 
		C316.539398,508.231232 341.037903,500.732452 364.573639,489.852325 
		C383.987671,480.877502 402.270569,470.035858 418.433533,455.965485 
		C428.265930,447.406067 438.179169,438.803040 446.988953,429.236816 
		C460.823181,414.214661 472.565918,397.592224 482.287445,379.486389 
		C492.907349,359.707458 501.451324,339.186584 506.175171,317.269745 
		C508.869720,304.768127 510.231293,291.979187 512.596558,279.159821 
		C513.000000,356.927032 513.000000,434.854095 513.000000,513.000000 
		C435.312561,513.000000 357.624939,513.000000 279.468658,513.000000 
	z"/>
	<path fill="#FFFFFF" opacity="1.000000" stroke="none" 
		d="
	M513.000000,234.531342 
		C512.334290,231.107590 511.461517,227.237640 511.036316,223.319138 
		C508.230530,197.460022 500.731628,172.961090 489.851257,149.424850 
		C480.876221,130.010300 470.034271,111.727203 455.963257,95.564117 
		C447.403473,85.731682 438.801025,75.817345 429.233948,67.008217 
		C414.210510,53.174999 397.573425,41.457718 379.486572,31.701464 
		C359.719788,21.039032 339.186798,12.544786 317.270447,7.824902 
		C304.768005,5.132386 291.979370,3.768808 279.159790,1.403420 
		C356.927032,1.000000 434.854095,1.000000 513.000000,1.000000 
		C513.000000,78.687424 513.000000,156.375061 513.000000,234.531342 
	z"/>
	<path fill="#FFFFFF" opacity="1.000000" stroke="none" 
		d="
	M234.531342,1.000000 
		C230.946198,1.666196 226.911011,2.489695 222.835449,2.972082 
		C202.272827,5.405900 182.483871,10.673695 163.210861,18.255049 
		C145.039703,25.402962 128.073837,34.629063 111.900215,45.512066 
		C95.043724,56.854565 80.027626,70.325279 66.422951,85.254311 
		C50.480888,102.748260 37.336105,122.301468 26.833643,143.574814 
		C16.845783,163.805801 9.790231,185.059311 5.114766,207.077774 
		C3.466517,214.839966 2.865641,222.824585 1.393278,230.853821 
		C1.000000,154.405655 1.000000,77.811317 1.000000,1.000000 
		C78.687424,1.000000 156.375061,1.000000 234.531342,1.000000 
	z"/>
	<path fill="#FFFFFF" opacity="1.000000" stroke="none" 
		d="
	M0.999999,285.468658 
		C2.331567,291.191071 3.980364,297.333862 4.932283,303.582764 
		C7.316034,319.231018 11.814860,334.269348 17.494526,348.976471 
		C24.746998,367.756317 34.136093,385.396027 45.466560,402.074554 
		C56.883198,418.879883 70.309799,433.918304 85.214890,447.550293 
		C102.808990,463.641571 122.533768,476.865875 143.943100,487.410034 
		C164.017761,497.296844 185.138275,504.376953 207.035843,508.845673 
		C216.100891,510.695618 225.456787,511.120270 234.840210,512.596558 
		C157.073914,513.000000 79.147827,513.000000 1.000000,513.000000 
		C1.000000,437.312592 1.000000,361.624939 0.999999,285.468658 
	z"/>
	<path fill="#FFFFFF" opacity="1.000000" stroke="none" 
		d="
	M366.940247,441.004517 
		C347.920380,452.457214 327.791138,460.386902 306.649048,465.571899 
		C297.552490,467.802826 288.139465,469.074005 278.792664,469.867035 
		C268.092712,470.774841 257.292664,471.183075 246.560791,470.893494 
		C223.568832,470.273071 201.419556,465.159454 179.940475,457.004517 
		C158.817108,448.984619 139.486847,437.674561 122.154510,423.386322 
		C107.709702,411.478455 94.909134,397.831818 83.728073,382.581635 
		C69.279564,362.874908 58.328064,341.534393 51.803780,318.128357 
		C48.220566,305.273468 45.889317,291.971100 44.205158,278.716553 
		C42.855812,268.096985 42.849800,257.234009 43.100159,246.498932 
		C43.629200,223.814636 48.766029,201.979370 56.679546,180.778229 
		C64.691994,159.312057 76.136978,139.683899 90.653809,122.109085 
		C102.576942,107.674324 116.185524,94.833405 131.474518,83.700089 
		C151.081009,69.422806 172.161270,58.326305 195.514252,52.042477 
		C208.559250,48.532322 221.940979,45.820946 235.346710,44.237103 
		C247.629639,42.785915 260.205292,42.429230 272.551025,43.202465 
		C293.403778,44.508499 313.675323,49.249996 333.281219,56.685371 
		C354.711060,64.812447 374.381134,76.155190 391.946686,90.681549 
		C412.356293,107.559921 429.669769,127.364052 442.896088,150.502365 
		C452.990692,168.161987 460.767944,186.782013 465.168365,206.658920 
		C467.264038,216.125214 469.062103,225.747971 469.839233,235.392960 
		C470.835205,247.754578 471.591644,260.269806 470.793488,272.611633 
		C469.435089,293.615265 464.631165,314.009583 457.085297,333.764130 
		C449.018372,354.882782 437.739075,374.163727 423.557770,391.581818 
		C415.998840,400.866089 407.188843,409.281403 398.132996,417.156921 
		C388.353546,425.661682 377.628510,433.079102 366.940247,441.004517 
	M340.606354,205.955933 
		C349.554199,208.997116 358.476166,212.117416 367.458099,215.054337 
		C374.602142,217.390289 380.846100,222.227631 389.436371,220.218948 
		C398.991913,217.984604 405.038147,211.666962 406.957947,201.035339 
		C408.117310,194.614899 402.035889,184.363052 394.754242,181.035965 
		C387.628632,177.780151 380.389435,174.721634 373.034821,172.027740 
		C350.435028,163.749771 327.199371,157.926544 303.291229,155.013016 
		C285.652344,152.863495 268.016907,149.870773 250.312134,149.277176 
		C226.775330,148.488022 203.157486,149.261703 179.603439,150.140396 
		C163.751434,150.731750 147.932190,152.491501 132.131149,154.059494 
		C121.042763,155.159805 114.243950,162.516724 113.123466,172.543228 
		C111.863312,183.819565 118.323814,193.015594 128.884277,194.836304 
		C134.688385,195.837006 140.837799,195.351822 146.784454,194.907028 
		C161.632935,193.796417 176.439301,191.444580 191.290100,191.188721 
		C219.716064,190.698975 248.202805,190.000092 276.513306,193.973007 
		C285.541107,195.239899 294.697571,195.738861 303.643463,197.404251 
		C315.821960,199.671448 327.854889,202.720261 340.606354,205.955933 
	M363.587616,297.098846 
		C372.826050,300.277679 384.118561,295.949463 388.835846,285.438232 
		C392.453308,277.377686 389.590607,262.953918 379.888306,258.959229 
		C373.816925,256.459503 368.006775,253.266998 361.831238,251.089188 
		C340.859558,243.693512 319.544067,237.590225 297.355347,234.954803 
		C284.763031,233.459183 272.249298,231.067368 259.622467,230.159103 
		C245.428482,229.138138 231.148132,229.266174 216.903122,229.025742 
		C208.577423,228.885208 200.218643,228.558960 191.925552,229.098007 
		C176.574768,230.095779 161.248077,231.534225 145.937119,233.049454 
		C136.566910,233.976776 128.192902,236.072906 123.732185,246.361557 
		C118.962837,257.362061 124.869820,273.135590 138.178101,274.804932 
		C144.599457,275.610474 151.287140,274.416595 157.844894,273.985748 
		C172.261536,273.038544 186.660019,271.490509 201.088837,271.145477 
		C215.149704,270.809296 229.252747,271.389343 243.311783,272.083588 
		C255.243011,272.672729 267.214081,273.460968 279.029175,275.136658 
		C293.241821,277.152283 307.523895,279.380768 321.377533,283.029633 
		C335.416992,286.727417 348.970428,292.270721 363.587616,297.098846 
	M290.647095,312.997192 
		C289.734344,312.673035 288.843842,312.166473 287.905518,312.052124 
		C273.842194,310.338104 259.811066,308.046417 245.693329,307.181519 
		C232.082733,306.347626 218.368256,306.623871 204.722610,307.090698 
		C186.303009,307.720856 167.899429,308.899475 149.500671,310.032715 
		C135.630890,310.886993 125.718254,318.887970 126.991356,334.625122 
		C127.769478,344.243622 139.087357,354.021790 148.172913,352.980072 
		C160.310440,351.588409 172.434235,349.787598 184.615677,349.147919 
		C197.236496,348.485168 209.926041,348.739624 222.572800,349.074066 
		C234.741959,349.395905 246.910812,350.127472 259.049377,351.070526 
		C267.479187,351.725464 275.956482,352.539764 284.238617,354.167755 
		C302.530151,357.763336 320.222412,363.333344 337.461670,370.598938 
		C347.359985,374.770660 359.518036,371.916870 365.056396,358.736267 
		C368.613190,350.271576 365.420746,336.596771 354.882721,332.378601 
		C349.828003,330.355286 345.013275,327.579193 339.819061,326.086151 
		C323.795746,321.480377 307.642090,317.328186 290.647095,312.997192 
	z"/>
	<path fill="#000000" opacity="1.000000" stroke="none" 
		d="
	M340.278320,205.694916 
		C327.854889,202.720261 315.821960,199.671448 303.643463,197.404251 
		C294.697571,195.738861 285.541107,195.239899 276.513306,193.973007 
		C248.202805,190.000092 219.716064,190.698975 191.290100,191.188721 
		C176.439301,191.444580 161.632935,193.796417 146.784454,194.907028 
		C140.837799,195.351822 134.688385,195.837006 128.884277,194.836304 
		C118.323814,193.015594 111.863312,183.819565 113.123466,172.543228 
		C114.243950,162.516724 121.042763,155.159805 132.131149,154.059494 
		C147.932190,152.491501 163.751434,150.731750 179.603439,150.140396 
		C203.157486,149.261703 226.775330,148.488022 250.312134,149.277176 
		C268.016907,149.870773 285.652344,152.863495 303.291229,155.013016 
		C327.199371,157.926544 350.435028,163.749771 373.034821,172.027740 
		C380.389435,174.721634 387.628632,177.780151 394.754242,181.035965 
		C402.035889,184.363052 408.117310,194.614899 406.957947,201.035339 
		C405.038147,211.666962 398.991913,217.984604 389.436371,220.218948 
		C380.846100,222.227631 374.602142,217.390289 367.458099,215.054337 
		C358.476166,212.117416 349.554199,208.997116 340.278320,205.694916 
	z"/>
	<path fill="#000000" opacity="1.000000" stroke="none" 
		d="
	M363.162170,297.052277 
		C348.970428,292.270721 335.416992,286.727417 321.377533,283.029633 
		C307.523895,279.380768 293.241821,277.152283 279.029175,275.136658 
		C267.214081,273.460968 255.243011,272.672729 243.311783,272.083588 
		C229.252747,271.389343 215.149704,270.809296 201.088837,271.145477 
		C186.660019,271.490509 172.261536,273.038544 157.844894,273.985748 
		C151.287140,274.416595 144.599457,275.610474 138.178101,274.804932 
		C124.869820,273.135590 118.962837,257.362061 123.732185,246.361557 
		C128.192902,236.072906 136.566910,233.976776 145.937119,233.049454 
		C161.248077,231.534225 176.574768,230.095779 191.925552,229.098007 
		C200.218643,228.558960 208.577423,228.885208 216.903122,229.025742 
		C231.148132,229.266174 245.428482,229.138138 259.622467,230.159103 
		C272.249298,231.067368 284.763031,233.459183 297.355347,234.954803 
		C319.544067,237.590225 340.859558,243.693512 361.831238,251.089188 
		C368.006775,253.266998 373.816925,256.459503 379.888306,258.959229 
		C389.590607,262.953918 392.453308,277.377686 388.835846,285.438232 
		C384.118561,295.949463 372.826050,300.277679 363.162170,297.052277 
	z"/>
	<path fill="#000000" opacity="1.000000" stroke="none" 
		d="
	M291.093079,312.998505 
		C307.642090,317.328186 323.795746,321.480377 339.819061,326.086151 
		C345.013275,327.579193 349.828003,330.355286 354.882721,332.378601 
		C365.420746,336.596771 368.613190,350.271576 365.056396,358.736267 
		C359.518036,371.916870 347.359985,374.770660 337.461670,370.598938 
		C320.222412,363.333344 302.530151,357.763336 284.238617,354.167755 
		C275.956482,352.539764 267.479187,351.725464 259.049377,351.070526 
		C246.910812,350.127472 234.741959,349.395905 222.572800,349.074066 
		C209.926041,348.739624 197.236496,348.485168 184.615677,349.147919 
		C172.434235,349.787598 160.310440,351.588409 148.172913,352.980072 
		C139.087357,354.021790 127.769478,344.243622 126.991356,334.625122 
		C125.718254,318.887970 135.630890,310.886993 149.500671,310.032715 
		C167.899429,308.899475 186.303009,307.720856 204.722610,307.090698 
		C218.368256,306.623871 232.082733,306.347626 245.693329,307.181519 
		C259.811066,308.046417 273.842194,310.338104 287.905518,312.052124 
		C288.843842,312.166473 289.734344,312.673035 291.093079,312.998505 
	z"/>
</svg>